<svg width="525" height="458" viewBox="0 0 525 458" fill="none" xmlns="http://www.w3.org/2000/svg">
<path d="M517.5 229C517.5 351.179 416.246 450.5 291 450.5C165.754 450.5 64.5 351.179 64.5 229C64.5 106.821 165.754 7.5 291 7.5C416.246 7.5 517.5 106.821 517.5 229Z" fill="#CAB72E" stroke="black" stroke-width="15"/>
<path d="M460.5 229C460.5 351.179 359.246 450.5 234 450.5C108.754 450.5 7.5 351.179 7.5 229C7.5 106.821 108.754 7.5 234 7.5C359.246 7.5 460.5 106.821 460.5 229Z" fill="#F9EB83" stroke="black" stroke-width="15"/>
<path d="M426.5 229C426.5 332.964 340.458 417.5 234 417.5C127.542 417.5 41.5 332.964 41.5 229C41.5 125.036 127.542 40.5 234 40.5C340.458 40.5 426.5 125.036 426.5 229Z" fill="#F8E559" stroke="black" stroke-width="15"/>
<line x1="360.5" y1="43.5" x2="405.5" y2="43.5" stroke="black" stroke-width="15" stroke-linecap="round"/>
<line x1="411.5" y1="86.5" x2="456.5" y2="86.5" stroke="black" stroke-width="15" stroke-linecap="round"/>
<line x1="438.5" y1="127.5" x2="483.5" y2="127.5" stroke="black" stroke-width="15" stroke-linecap="round"/>
<line x1="441.5" y1="329.5" x2="486.5" y2="329.5" stroke="black" stroke-width="15" stroke-linecap="round"/>
<line x1="458.5" y1="288.5" x2="503.5" y2="288.5" stroke="black" stroke-width="15" stroke-linecap="round"/>
<line x1="461.5" y1="250.5" x2="506.5" y2="250.5" stroke="black" stroke-width="15" stroke-linecap="round"/>
<line x1="458.5" y1="168.5" x2="503.5" y2="168.5" stroke="black" stroke-width="15" stroke-linecap="round"/>
<line x1="461.5" y1="209.5" x2="506.5" y2="209.5" stroke="black" stroke-width="15" stroke-linecap="round"/>
<line x1="415.5" y1="369.5" x2="460.5" y2="369.5" stroke="black" stroke-width="15" stroke-linecap="round"/>
<line x1="370.5" y1="409.5" x2="415.5" y2="409.5" stroke="black" stroke-width="15" stroke-linecap="round"/>
<path d="M370.43 197.959C363.905 189.695 354.771 184.91 343.462 184.041C341.287 171.426 336.937 160.117 330.847 149.677C355.206 135.322 358.25 113.573 358.25 112.704C358.685 109.659 356.51 106.614 353.465 106.179C323.451 96.6092 289.958 103.134 280.824 104.874C275.17 101.83 259.077 94 234.283 94C209.923 94 193.395 101.394 187.74 104.875C178.606 102.701 145.547 96.1757 115.534 106.615C112.489 107.05 110.314 109.66 110.749 112.705C110.749 113.576 114.229 135.324 138.152 149.678C132.062 160.117 127.713 171.427 125.537 184.042C114.227 184.912 104.659 189.696 98.5686 197.961C92.4797 206.224 89 217.534 89 231.453C89 291.914 147.287 381.086 228.627 385C229.932 385 231.238 385 232.977 385C233.412 385 233.848 385 234.283 385C234.717 385 235.153 385 235.588 385C236.893 385 238.198 385 239.938 385C321.713 381.086 380 291.914 380 231.453C380 217.968 376.52 206.224 370.43 197.959ZM324.323 140.543C322.149 137.498 319.973 134.889 317.364 132.278C325.194 129.668 333.893 126.624 342.592 122.708C339.113 128.364 333.457 135.323 324.323 140.543ZM175.125 114.009C182.519 115.314 187.304 116.184 187.304 116.619C189.044 117.054 190.349 116.619 191.654 115.749C191.654 115.749 207.313 105.744 234.281 105.744C260.815 105.744 276.474 115.749 276.909 115.749C278.214 116.619 279.954 117.054 281.259 116.619C281.259 116.619 286.044 115.314 293.438 114.009C303.877 112.269 319.537 110.964 335.196 113.574C325.191 117.489 316.057 120.968 307.357 123.579C303.007 124.884 298.658 126.189 294.742 127.493C294.307 127.493 294.307 127.493 293.871 127.493C267.772 134.887 246.459 141.412 234.279 164.901C222.104 140.977 200.789 134.887 174.69 127.493C174.256 127.493 174.256 127.493 173.82 127.493C169.905 126.188 165.555 124.883 161.205 123.579C152.506 120.968 143.37 117.925 133.366 113.574C149.027 111.399 164.686 112.704 175.125 114.009ZM126.408 122.708C135.107 126.623 143.806 129.668 151.636 132.278C149.026 134.889 146.851 137.498 144.677 140.543C135.108 135.323 129.887 128.364 126.408 122.708ZM163.816 136.193C165.991 137.063 168.601 137.498 170.776 138.367C199.919 146.632 219.493 152.286 228.628 180.56C222.538 183.17 217.319 189.259 211.23 195.784C210.795 196.218 210.795 196.218 210.359 196.654C209.489 180.56 196.44 167.946 180.346 167.946C163.816 167.946 150.332 181.43 150.332 197.959C150.332 214.489 163.816 227.973 180.346 227.973C180.346 227.973 180.346 227.973 180.78 227.973C198.179 227.973 209.923 214.054 219.493 203.179C224.713 197.089 230.367 190.564 233.848 190.564C237.328 190.564 243.418 197.089 248.203 203.179C257.773 214.054 269.517 227.973 286.916 227.973H287.35C303.88 227.973 317.364 214.489 317.364 197.959C317.364 181.43 303.88 167.946 287.35 167.946C271.256 167.946 258.207 180.561 257.337 196.654C256.902 196.22 256.902 196.22 256.466 195.784C250.376 188.824 245.156 182.734 239.068 180.56C248.202 152.286 267.776 146.632 296.92 138.367C299.095 137.932 301.705 137.062 303.88 136.193C320.409 151.851 331.283 173.166 332.588 197.525V197.959C332.588 224.059 311.71 245.372 285.61 245.372C273.866 245.372 263.427 242.327 255.597 237.107C255.597 235.802 255.597 234.932 254.726 234.062L237.762 206.659C236.892 204.919 235.152 204.048 232.977 204.048C231.238 204.048 229.063 204.919 228.193 206.659L211.229 234.062C210.794 234.932 210.358 236.236 210.358 237.107C202.528 242.327 192.089 245.372 180.345 245.372C154.681 245.372 133.367 224.057 133.367 197.959V197.525C136.848 173.166 147.287 151.417 163.816 136.193ZM199.484 197.959C199.484 208.399 191.22 216.663 180.78 216.663C170.341 216.663 162.077 208.399 162.077 197.959C162.077 187.52 170.341 179.256 180.78 179.256C191.22 179.256 199.484 187.52 199.484 197.959ZM269.516 197.959C269.516 187.52 277.78 179.256 288.22 179.256C298.659 179.256 306.923 187.52 306.923 197.959C306.923 208.399 298.659 216.663 288.22 216.663C277.78 216.663 269.516 208.399 269.516 197.959ZM245.156 237.543L243.851 241.023L234.281 267.556L224.712 241.023L223.406 237.543L231.671 223.624L233.846 219.71L236.02 223.189L245.156 237.543ZM100.31 231.453C100.31 220.143 102.92 211.009 107.704 204.919C111.618 199.699 117.274 196.654 124.668 195.785C124.668 198.395 124.233 201.005 124.233 203.615C124.233 257.552 137.283 313.664 164.686 348.898C125.538 318.883 100.31 268.426 100.31 231.453ZM136.412 234.063C145.111 244.938 157.29 252.767 171.211 255.812C172.081 273.211 177.735 337.588 201.224 368.907C163.816 348.462 142.068 291.045 136.412 234.063ZM234.283 374.125C196.005 374.125 183.825 294.089 182.086 256.681C195.135 256.681 206.445 253.636 216.014 247.982L229.498 282.346C230.368 284.52 232.543 289.74 234.717 289.74C236.892 289.74 239.068 284.52 239.937 282.346L252.986 247.982C262.12 253.636 273.865 256.681 286.48 256.681C284.74 294.09 272.995 374.125 234.283 374.125ZM267.341 368.471C290.83 336.717 296.484 272.776 297.355 255.376C311.274 252.766 323.889 244.937 332.153 233.627C326.932 291.045 305.184 348.462 267.341 368.471ZM304.314 348.896C332.153 313.229 345.202 257.116 345.202 203.179C345.202 200.569 345.202 197.959 344.767 195.349C352.161 196.22 357.816 199.263 361.731 204.483C366.516 210.573 369.125 219.707 369.125 231.017C368.69 268.426 343.462 318.883 304.314 348.896Z" fill="black"/>
</svg>
