<?xml version="1.0" standalone="no"?>
<!DOCTYPE svg PUBLIC "-//W3C//DTD SVG 20010904//EN"
 "http://www.w3.org/TR/2001/REC-SVG-20010904/DTD/svg10.dtd">
<svg version="1.0" xmlns="http://www.w3.org/2000/svg"
 width="1050.000000pt" height="1050.000000pt" viewBox="0 0 1050.000000 1050.000000"
 preserveAspectRatio="xMidYMid meet">
<metadata>
Created by potrace 1.14, written by Peter Selinger 2001-2017
</metadata>
<g transform="translate(0.000000,1050.000000) scale(0.100000,-0.100000)"
fill="#000000" stroke="none">
<path d="M4390 9824 c-19 -2 -93 -9 -165 -15 -444 -36 -972 -168 -1400 -351
-567 -242 -1069 -581 -1498 -1012 -761 -764 -1219 -1745 -1312 -2806 -115
-1328 361 -2631 1312 -3586 775 -778 1795 -1259 2903 -1366 178 -17 736 -17
897 0 101 11 145 11 245 0 161 -17 731 -17 898 0 897 92 1703 403 2400 928
1020 768 1666 1894 1807 3149 25 225 25 745 0 970 -80 715 -321 1386 -712
1982 -627 955 -1566 1636 -2685 1947 -236 66 -530 120 -810 148 -165 17 -724
17 -900 0 -103 -10 -157 -10 -225 -2 -89 11 -687 22 -755 14z m547 -309 c89
-3 215 -12 280 -20 1024 -131 1920 -573 2623 -1291 343 -350 586 -694 795
-1127 279 -575 418 -1177 418 -1817 1 -671 -139 -1273 -438 -1875 -152 -306
-328 -578 -544 -839 -126 -152 -448 -468 -601 -590 -664 -529 -1408 -843
-2253 -951 -273 -34 -801 -35 -1074 0 -1353 172 -2518 915 -3219 2052 -310
503 -512 1080 -589 1678 -35 277 -35 753 0 1030 118 923 524 1763 1175 2429
712 729 1609 1171 2637 1301 135 17 473 34 573 28 30 -1 128 -5 217 -8z m1663
-65 c0 -13 -11 -13 -30 0 -12 8 -11 10 8 10 12 0 22 -4 22 -10z m43 -7 c-7 -2
-19 -2 -25 0 -7 3 -2 5 12 5 14 0 19 -2 13 -5z m44 -9 c-3 -3 -12 -4 -19 -1
-8 3 -5 6 6 6 11 1 17 -2 13 -5z m50 -10 c-3 -3 -12 -4 -19 -1 -8 3 -5 6 6 6
11 1 17 -2 13 -5z m40 -10 c-3 -3 -12 -4 -19 -1 -8 3 -5 6 6 6 11 1 17 -2 13
-5z m250 -60 c-3 -3 -12 -4 -19 -1 -8 3 -5 6 6 6 11 1 17 -2 13 -5z m521 -231
c-65 -2 -171 -2 -235 0 -65 1 -12 3 117 3 129 0 182 -2 118 -3z m1293 -790
c13 -16 12 -17 -3 -4 -10 7 -18 15 -18 17 0 8 8 3 21 -13z m-104 -70 c-98 -2
-256 -2 -350 0 -95 1 -14 3 178 2 193 0 270 -1 172 -2z m640 -820 c-109 -2
-285 -2 -390 0 -106 1 -16 2 198 2 215 0 301 -1 192 -2z m486 -1150 c-111 -2
-295 -2 -410 0 -114 1 -23 2 202 2 226 0 319 -1 208 -2z m-586 -115 c-3 -8 -6
-5 -6 6 -1 11 2 17 5 13 3 -3 4 -12 1 -19z m10 -50 c-3 -7 -5 -2 -5 12 0 14 2
19 5 13 2 -7 2 -19 0 -25z m810 -20 c-3 -8 -6 -5 -6 6 -1 11 2 17 5 13 3 -3 4
-12 1 -19z m-800 -20 c-3 -8 -6 -5 -6 6 -1 11 2 17 5 13 3 -3 4 -12 1 -19z
m810 -20 c-3 -8 -6 -5 -6 6 -1 11 2 17 5 13 3 -3 4 -12 1 -19z m-800 -30 c-3
-8 -6 -5 -6 6 -1 11 2 17 5 13 3 -3 4 -12 1 -19z m810 -20 c-3 -8 -6 -5 -6 6
-1 11 2 17 5 13 3 -3 4 -12 1 -19z m10 -50 c-3 -7 -5 -2 -5 12 0 14 2 19 5 13
2 -7 2 -19 0 -25z m-174 -165 c-111 -2 -295 -2 -410 0 -114 1 -23 2 202 2 226
0 319 -1 208 -2z m-586 -355 c-3 -7 -5 -2 -5 12 0 14 2 19 5 13 2 -7 2 -19 0
-25z m820 -295 c-1 -54 -3 -10 -3 97 0 107 2 151 3 98 2 -54 2 -142 0 -195z
m-810 25 c-1 -40 -3 -8 -3 72 0 80 2 112 3 73 2 -40 2 -106 0 -145z m391 -191
l397 -2 -402 -3 -403 -2 2 43 1 42 4 -37 4 -38 397 -3z m409 -9 c-3 -8 -6 -5
-6 6 -1 11 2 17 5 13 3 -3 4 -12 1 -19z m-50 -470 c-3 -7 -5 -2 -5 12 0 14 2
19 5 13 2 -7 2 -19 0 -25z m-10 -40 c-3 -8 -6 -5 -6 6 -1 11 2 17 5 13 3 -3 4
-12 1 -19z m-810 -20 c-3 -7 -5 -2 -5 12 0 14 2 19 5 13 2 -7 2 -19 0 -25z
m800 -30 c-3 -8 -6 -5 -6 6 -1 11 2 17 5 13 3 -3 4 -12 1 -19z m-810 -20 c-3
-7 -5 -2 -5 12 0 14 2 19 5 13 2 -7 2 -19 0 -25z m800 -20 c-3 -8 -6 -5 -6 6
-1 11 2 17 5 13 3 -3 4 -12 1 -19z m-810 -30 c-3 -7 -5 -2 -5 12 0 14 2 19 5
13 2 -7 2 -19 0 -25z m-10 -40 c-3 -8 -6 -5 -6 6 -1 11 2 17 5 13 3 -3 4 -12
1 -19z m586 -85 c-111 -2 -295 -2 -410 0 -114 1 -23 2 202 2 226 0 319 -1 208
-2z m-90 -330 c-112 -2 -294 -2 -405 0 -112 1 -21 2 202 2 223 0 314 -1 203
-2z m-386 -820 c-109 -2 -285 -2 -390 0 -106 1 -16 2 198 2 215 0 301 -1 192
-2z m-262 -466 c72 -1 -38 -4 -243 -5 -205 -1 -371 1 -369 6 5 6 282 6 612 -1z
m-275 -431 c0 -2 -8 -10 -17 -17 -16 -13 -17 -12 -4 4 13 16 21 21 21 13z
m-1470 -690 c0 -2 -7 -7 -16 -10 -8 -3 -12 -2 -9 4 6 10 25 14 25 6z m488 -12
c-7 -6 -460 -5 -467 1 -2 3 103 5 234 5 131 0 236 -3 233 -6z m-841 -330 c-3
-3 -12 -4 -19 -1 -8 3 -5 6 6 6 11 1 17 -2 13 -5z m-250 -60 c-3 -3 -12 -4
-19 -1 -8 3 -5 6 6 6 11 1 17 -2 13 -5z m-40 -10 c-3 -3 -12 -4 -19 -1 -8 3
-5 6 6 6 11 1 17 -2 13 -5z m-50 -10 c-3 -3 -12 -4 -19 -1 -8 3 -5 6 6 6 11 1
17 -2 13 -5z m-92 -14 c-3 -5 -14 -10 -23 -10 -15 0 -15 2 -2 10 20 13 33 13
25 0z m48 3 c-7 -2 -19 -2 -25 0 -7 3 -2 5 12 5 14 0 19 -2 13 -5z"/>
<path d="M4327 9159 c-518 -49 -974 -176 -1432 -399 -409 -200 -742 -438
-1066 -760 -91 -91 -201 -208 -245 -262 -513 -621 -821 -1358 -889 -2128 -64
-723 62 -1414 375 -2055 331 -675 861 -1252 1515 -1648 529 -320 1138 -515
1780 -568 179 -15 615 -6 795 15 253 31 537 92 766 167 1204 390 2148 1309
2549 2479 140 409 205 806 205 1250 0 441 -64 831 -203 1245 -327 968 -1056
1795 -1992 2256 -414 205 -829 330 -1290 390 -182 24 -694 35 -868 18z m593
-304 c367 -17 795 -112 1160 -258 1206 -484 2071 -1565 2254 -2817 54 -370 54
-690 0 -1060 -214 -1464 -1351 -2666 -2831 -2994 -444 -98 -924 -116 -1383
-50 -590 84 -1206 341 -1685 702 -711 535 -1198 1296 -1374 2145 -60 287 -66
352 -66 727 0 375 6 437 66 730 306 1487 1572 2647 3109 2851 167 22 442 38
555 33 39 -2 126 -6 195 -9z"/>
<path d="M4450 7943 c-222 -22 -556 -117 -666 -190 -22 -14 -31 -14 -105 1
-121 24 -366 53 -514 61 -149 8 -364 -6 -541 -35 -147 -24 -351 -84 -381 -112
-50 -46 -36 -151 42 -315 86 -181 223 -345 384 -458 45 -31 81 -60 81 -65 0
-5 -19 -43 -42 -86 -65 -121 -135 -307 -170 -455 l-32 -137 -60 -6 c-76 -8
-211 -54 -282 -97 -176 -107 -308 -311 -361 -559 -25 -118 -25 -489 0 -635
135 -779 612 -1584 1249 -2108 302 -247 656 -439 983 -531 232 -65 324 -78
590 -83 195 -4 277 -1 371 11 604 79 1230 431 1694 951 345 386 613 836 766
1288 48 139 110 398 128 535 21 146 21 402 1 518 -42 243 -144 437 -290 554
-107 85 -245 144 -367 157 -55 6 -56 6 -63 42 -29 165 -110 398 -194 557 l-48
91 46 28 c223 139 404 373 481 621 25 83 25 128 0 169 -22 35 -36 42 -144 75
-314 94 -808 105 -1267 29 l-126 -21 -51 26 c-149 75 -388 145 -585 171 -107
14 -424 19 -527 8z m482 -248 c214 -28 416 -88 589 -175 70 -36 65 -36 239 3
201 44 287 52 575 51 149 0 288 -5 310 -10 l40 -10 -75 -28 c-306 -115 -553
-197 -780 -257 -581 -153 -890 -332 -1083 -626 -51 -79 -64 -92 -72 -78 -135
225 -290 372 -512 484 -152 76 -446 180 -638 224 -182 43 -847 268 -833 283 3
2 80 8 172 15 265 17 609 -9 828 -63 l88 -21 118 56 c169 80 318 123 529 152
134 18 369 18 505 0z m-2257 -385 c55 -22 154 -59 220 -82 66 -23 122 -43 124
-44 4 -3 -119 -148 -130 -152 -16 -7 -160 102 -218 164 -57 60 -121 145 -121
159 0 4 6 5 13 2 6 -3 57 -24 112 -47z m4155 43 c0 -14 -86 -119 -143 -175
-60 -59 -176 -148 -194 -148 -5 0 -25 21 -45 48 -20 26 -48 58 -62 71 -14 14
-26 27 -26 31 0 3 26 14 58 24 78 25 339 124 371 141 29 16 41 18 41 8z
m-3413 -294 c275 -81 423 -130 524 -172 311 -128 489 -308 608 -613 l19 -50
-56 -34 c-32 -19 -110 -88 -178 -156 l-121 -122 -13 70 c-27 152 -134 309
-271 398 -146 94 -343 120 -503 66 -100 -34 -154 -65 -227 -133 -78 -73 -131
-155 -165 -255 -24 -70 -28 -99 -28 -188 0 -91 4 -116 30 -190 37 -106 88
-184 166 -254 117 -106 249 -156 409 -156 117 0 197 19 296 69 155 78 246 157
481 419 85 96 177 191 204 213 98 77 152 48 355 -189 217 -253 346 -368 498
-443 107 -52 180 -69 295 -69 179 0 320 60 440 187 191 200 224 485 85 722
-141 240 -445 355 -705 264 -105 -36 -182 -86 -252 -162 -88 -96 -133 -190
-163 -343 -5 -26 -9 -23 -94 70 -88 97 -167 165 -228 196 -18 9 -33 18 -33 20
0 14 44 124 70 176 161 319 382 459 1010 638 96 28 182 53 191 57 33 13 229
-219 338 -399 190 -314 287 -751 227 -1024 -76 -347 -337 -623 -676 -714 -73
-20 -109 -23 -255 -23 -152 1 -182 4 -279 28 -128 32 -296 109 -296 136 0 9
-31 66 -68 126 -37 61 -123 199 -191 308 -67 108 -131 202 -141 207 -27 14
-87 12 -118 -4 -19 -10 -82 -102 -209 -308 -100 -161 -184 -305 -188 -319 -5
-21 -24 -35 -88 -67 -167 -83 -280 -107 -497 -107 -191 0 -279 19 -414 86
-297 148 -488 419 -526 746 -10 89 -9 112 9 215 58 322 191 633 379 886 49 65
198 232 208 232 2 0 66 -18 141 -41z m312 -838 c154 -48 253 -186 254 -351 0
-145 -77 -266 -211 -332 -60 -30 -75 -33 -157 -33 -76 0 -99 4 -147 27 -76 35
-151 107 -185 177 -25 50 -28 67 -28 161 0 125 17 171 92 251 99 106 242 144
382 100z m2190 -16 c71 -32 151 -111 184 -182 18 -40 22 -66 22 -153 0 -94 -3
-111 -28 -161 -34 -70 -109 -142 -185 -177 -49 -23 -70 -27 -147 -27 -119 1
-191 32 -269 116 -70 75 -96 142 -96 247 0 98 11 136 60 209 99 150 291 203
459 128z m1051 -300 c56 -12 152 -59 198 -100 87 -76 153 -202 189 -359 23
-102 23 -358 -1 -501 -118 -714 -543 -1461 -1116 -1959 -125 -108 -130 -111
-72 -29 449 630 732 1671 736 2715 1 215 3 247 16 244 8 -3 31 -8 50 -11z
m-4484 -268 c4 -982 264 -1980 682 -2612 48 -74 84 -131 78 -128 -6 4 -54 43
-106 89 -504 436 -916 1104 -1065 1729 -50 209 -59 282 -59 480 0 208 18 303
81 435 41 85 141 193 208 225 37 17 147 53 170 54 6 1 10 -97 11 -272z m2312
-399 l100 -158 -35 -97 c-19 -54 -61 -170 -93 -258 -32 -88 -64 -175 -72 -194
l-14 -35 -16 45 c-73 195 -191 526 -191 535 0 6 36 71 80 145 44 74 88 149 98
168 21 42 17 47 143 -151z m1828 -195 c-4 -49 -16 -146 -27 -218 -124 -805
-376 -1462 -737 -1920 -117 -147 -313 -322 -456 -406 -40 -24 -41 -20 -5 31 9
14 42 72 73 128 229 419 391 1076 462 1868 l17 191 96 27 c190 53 370 163 506
308 39 42 72 76 74 77 2 0 1 -38 -3 -86z m-3622 -152 c96 -65 212 -120 329
-156 74 -23 87 -31 87 -49 1 -88 41 -446 80 -711 87 -588 266 -1145 463 -1438
21 -32 37 -60 35 -62 -2 -2 -36 18 -77 45 -512 343 -907 1078 -1100 2045 -37
185 -81 474 -81 533 0 22 11 14 93 -65 50 -49 128 -113 171 -142z m1327 -58
c69 -189 286 -720 306 -751 35 -53 57 -61 90 -30 41 38 46 48 243 573 46 121
86 223 89 227 3 3 48 -14 99 -38 116 -56 288 -101 443 -116 l119 -12 0 -51 c0
-28 -7 -125 -15 -216 -69 -743 -244 -1377 -476 -1723 -264 -393 -648 -457
-950 -156 -228 226 -398 627 -518 1229 -51 254 -111 720 -111 864 l0 54 93 8
c179 13 372 64 497 130 36 19 68 34 73 35 4 0 12 -12 18 -27z"/>
</g>
</svg>
