<svg viewBox="0 0 34 33" fill="currentColor" xmlns="http://www.w3.org/2000/svg">
<path d="M30.5526 0.09375H3.01475C1.55869 0.09375 0.377441 1.275 0.377441 2.73105V30.2689C0.377441 31.725 1.55869 32.9062 3.01475 32.9062H30.5526C32.0087 32.9062 33.1899 31.725 33.1899 30.2689V2.73105C33.1899 1.275 32.0087 0.09375 30.5526 0.09375ZM30.5526 30.2812C12.1858 30.2771 3.00244 30.273 3.00244 30.2689C3.00654 11.9021 3.01064 2.71875 3.01475 2.71875C21.3815 2.72285 30.5649 2.72695 30.5649 2.73105C30.5608 21.0979 30.5567 30.2812 30.5526 30.2812ZM5.24189 12.3943H10.1104V28.0541H5.24189V12.3943ZM7.67822 10.2533C9.23271 10.2533 10.5001 8.99004 10.5001 7.43145C10.5001 7.06087 10.4271 6.69393 10.2853 6.35156C10.1435 6.00919 9.93563 5.69811 9.67359 5.43608C9.41155 5.17404 9.10047 4.96619 8.75811 4.82437C8.41574 4.68256 8.0488 4.60957 7.67822 4.60957C7.30765 4.60957 6.9407 4.68256 6.59834 4.82437C6.25597 4.96619 5.94489 5.17404 5.68286 5.43608C5.42082 5.69811 5.21296 6.00919 5.07115 6.35156C4.92934 6.69393 4.85635 7.06087 4.85635 7.43145C4.85225 8.99004 6.11553 10.2533 7.67822 10.2533ZM18.0265 20.3062C18.0265 18.2637 18.4161 16.2867 20.9468 16.2867C23.4405 16.2867 23.4774 18.6205 23.4774 20.4375V28.0541H28.3419V19.4654C28.3419 15.249 27.4313 12.0047 22.5054 12.0047C20.1388 12.0047 18.5515 13.3049 17.8993 14.5354H17.8337V12.3943H13.162V28.0541H18.0265V20.3062Z" />
</svg>
