<svg viewBox="0 0 36 35" fill="currentColor" xmlns="http://www.w3.org/2000/svg">
<path d="M10.4337 0H25.1337C30.7337 0 35.2837 4.55 35.2837 10.15V24.85C35.2837 27.5419 34.2143 30.1236 32.3108 32.0271C30.4073 33.9306 27.8256 35 25.1337 35H10.4337C4.83369 35 0.283691 30.45 0.283691 24.85V10.15C0.283691 7.45805 1.35306 4.87636 3.25656 2.97287C5.16005 1.06937 7.74174 0 10.4337 0ZM10.0837 3.5C8.41283 3.5 6.8104 4.16375 5.62892 5.34523C4.44744 6.52671 3.78369 8.12914 3.78369 9.8V25.2C3.78369 28.6825 6.60119 31.5 10.0837 31.5H25.4837C27.1546 31.5 28.757 30.8363 29.9385 29.6548C31.1199 28.4733 31.7837 26.8709 31.7837 25.2V9.8C31.7837 6.3175 28.9662 3.5 25.4837 3.5H10.0837ZM26.9712 6.125C27.5514 6.125 28.1078 6.35547 28.518 6.7657C28.9282 7.17594 29.1587 7.73234 29.1587 8.3125C29.1587 8.89266 28.9282 9.44906 28.518 9.8593C28.1078 10.2695 27.5514 10.5 26.9712 10.5C26.391 10.5 25.8346 10.2695 25.4244 9.8593C25.0142 9.44906 24.7837 8.89266 24.7837 8.3125C24.7837 7.73234 25.0142 7.17594 25.4244 6.7657C25.8346 6.35547 26.391 6.125 26.9712 6.125ZM17.7837 8.75C20.1043 8.75 22.3299 9.67187 23.9709 11.3128C25.6118 12.9538 26.5337 15.1794 26.5337 17.5C26.5337 19.8206 25.6118 22.0462 23.9709 23.6872C22.3299 25.3281 20.1043 26.25 17.7837 26.25C15.463 26.25 13.2375 25.3281 11.5965 23.6872C9.95556 22.0462 9.03369 19.8206 9.03369 17.5C9.03369 15.1794 9.95556 12.9538 11.5965 11.3128C13.2375 9.67187 15.463 8.75 17.7837 8.75ZM17.7837 12.25C16.3913 12.25 15.0559 12.8031 14.0714 13.7877C13.0868 14.7723 12.5337 16.1076 12.5337 17.5C12.5337 18.8924 13.0868 20.2277 14.0714 21.2123C15.0559 22.1969 16.3913 22.75 17.7837 22.75C19.1761 22.75 20.5114 22.1969 21.496 21.2123C22.4806 20.2277 23.0337 18.8924 23.0337 17.5C23.0337 16.1076 22.4806 14.7723 21.496 13.7877C20.5114 12.8031 19.1761 12.25 17.7837 12.25Z" />
</svg>
