<svg viewBox="0 0 43 43" fill="currentColor" xmlns="http://www.w3.org/2000/svg">
<path fill-rule="evenodd" clip-rule="evenodd" d="M31.9634 12.7308C31.3456 11.8418 29.6936 10.5923 27.0179 11.1313C25.4569 11.4445 24.5241 12.2163 23.9309 13.2348C23.2991 14.3198 22.9929 15.795 22.9929 17.5117C22.9929 17.9759 22.8085 18.421 22.4803 18.7492C22.1521 19.0774 21.707 19.2617 21.2429 19.2617C17.1024 19.2617 13.1614 18.0315 9.84515 14.7047C9.59477 16.0545 9.49616 17.4281 9.55115 18.7997C9.6439 20.7002 10.0971 22.606 11.1734 24.2388C12.2321 25.8435 13.9734 27.3135 16.8854 28.2375C17.1707 28.328 17.4281 28.4902 17.6328 28.7086C17.8376 28.927 17.9829 29.1942 18.0549 29.4848C18.1269 29.7753 18.1231 30.0795 18.044 30.3682C17.9649 30.6569 17.813 30.9205 17.6029 31.1337C16.6701 32.0905 15.613 32.9174 14.4599 33.5925C16.3149 33.785 18.1034 33.799 19.7624 33.6485C23.1224 33.344 25.7981 32.3832 27.4711 31.0235C30.9939 28.1675 32.8786 23.908 32.5286 16.7715C32.4691 15.599 33.6014 14.3338 34.1474 13.373C33.3231 13.527 32.4971 13.499 31.9634 12.7308ZM8.82315 9.222C9.13999 9.18518 9.46087 9.23565 9.75111 9.36797C10.0413 9.50029 10.2899 9.70942 10.4699 9.97275C13.0529 13.751 16.1539 15.3225 19.5961 15.6795C19.7641 14.2077 20.1614 12.7535 20.9086 11.4725C22.0041 9.593 23.7856 8.2105 26.3301 7.6995C29.8476 6.9925 32.5251 8.2665 34.0774 9.82575L37.2134 9.2395C37.5416 9.17801 37.8805 9.21168 38.1901 9.33653C38.4998 9.46139 38.7672 9.67221 38.961 9.94413C39.1547 10.2161 39.2666 10.5377 39.2835 10.8712C39.3003 11.2046 39.2215 11.5359 39.0561 11.826L36.0461 17.1145C36.3209 24.7463 34.1999 30.0733 29.6779 33.743C27.2804 35.689 23.8469 36.7933 20.0791 37.1345C16.2816 37.4775 11.9889 37.0627 7.7224 35.8167C7.35786 35.7104 7.0378 35.4884 6.81052 35.1842C6.58323 34.88 6.46107 34.5101 6.46245 34.1304C6.46383 33.7507 6.58869 33.3817 6.81818 33.0791C7.04767 32.7766 7.36934 32.5569 7.73465 32.4533C9.88015 31.8425 11.5146 31.3158 12.9899 30.3935C10.8916 29.2805 9.3464 27.8245 8.25265 26.1655C6.73365 23.859 6.17015 21.2865 6.05815 18.9678C5.94615 16.649 6.2804 14.5 6.6339 12.9513C6.83515 12.0675 7.06965 11.182 7.3934 10.335C7.50759 10.0364 7.70139 9.77485 7.95375 9.57864C8.20611 9.38242 8.50564 9.25908 8.82315 9.222Z" />
</svg>
