<svg viewBox="0 0 43 43" fill="currentColor" xmlns="http://www.w3.org/2000/svg">
<path d="M11.8349 11.308C11.3974 10.1915 11.4149 8.91575 11.6091 7.7485C12.9464 8.1492 14.2024 8.78312 15.3191 9.621C15.8091 9.9955 16.4514 10.1162 17.0499 9.936C18.5856 9.47651 20.1806 9.24537 21.7836 9.25C23.4654 9.25 25.0631 9.495 26.5139 9.93425C27.1124 10.1162 27.7546 9.99375 28.2429 9.61925C29.359 8.78155 30.6144 8.14764 31.9511 7.74675C32.1454 8.914 32.1611 10.1897 31.7271 11.3045C31.4646 11.9765 31.5959 12.75 32.0911 13.2995C33.3581 14.7047 34.0336 16.32 34.0336 18C34.0336 21.6995 30.5861 25.3272 25.0491 26.4315C23.6631 26.708 23.1224 28.4528 24.1829 29.452C24.8636 30.0925 25.2836 30.9955 25.2836 32V37.25C25.2836 37.7141 25.468 38.1593 25.7962 38.4874C26.1244 38.8156 26.5695 39 27.0336 39C27.4977 39 27.9429 38.8156 28.271 38.4874C28.5992 38.1593 28.7836 37.7141 28.7836 37.25V32C28.7836 31.0025 28.5736 30.054 28.1991 29.1947C33.4789 27.3625 37.5336 23.2377 37.5336 18C37.5336 15.6427 36.6866 13.4762 35.2814 11.6615C35.6489 10.2265 35.6156 8.781 35.4756 7.6715C35.3514 6.6775 35.1781 5.3755 34.4781 4.5985C33.4369 3.44525 31.7131 4.12425 30.4881 4.5425C29.174 4.98715 27.9238 5.60196 26.7694 6.37125C25.1401 5.95547 23.465 5.74674 21.7836 5.75C20.0441 5.75 18.3659 5.96875 16.7944 6.373C15.6399 5.60369 14.3897 4.98888 13.0756 4.54425C11.8506 4.12425 10.1251 3.44525 9.08385 4.5985C8.36985 5.3895 8.2211 6.58825 8.09335 7.60675L8.0846 7.67325C7.9446 8.7845 7.9131 10.2317 8.2806 11.6685C6.8806 13.4815 6.0336 15.6445 6.0336 18C6.0336 23.236 10.0884 27.3625 15.3681 29.1947C14.9859 30.0685 14.787 31.0113 14.7836 31.965L14.4896 32.0245C13.2349 32.1978 12.4316 32.042 11.8856 31.811C10.5556 31.2475 9.86961 29.8283 9.0331 28.7432C8.5116 28.0695 7.7521 27.2277 6.5866 26.8392C6.36851 26.7666 6.13825 26.7377 5.90897 26.754C5.67969 26.7704 5.45587 26.8318 5.25031 26.9346C4.83515 27.1424 4.51952 27.5065 4.37285 27.947C4.22619 28.3875 4.2605 28.8681 4.46825 29.2833C4.67599 29.6985 5.04015 30.0141 5.4806 30.1607C6.4571 30.4862 7.1326 32.1593 7.7521 32.9012C8.40485 33.6852 9.27285 34.5042 10.5171 35.0328C11.7106 35.5403 13.1124 35.7205 14.7836 35.5158V37.25C14.7836 37.7141 14.968 38.1593 15.2962 38.4874C15.6244 38.8156 16.0695 39 16.5336 39C16.9977 39 17.4429 38.8156 17.771 38.4874C18.0992 38.1593 18.2836 37.7141 18.2836 37.25V32C18.2836 30.9955 18.7036 30.0925 19.3844 29.452C20.4466 28.451 19.9041 26.708 18.5181 26.4315C12.9794 25.3272 9.5336 21.6995 9.5336 18C9.5336 16.3235 10.2074 14.7082 11.4726 13.303C11.9679 12.7535 12.0974 11.98 11.8349 11.308Z" />
</svg>
